<mxfile host="Electron" modified="2023-04-27T00:22:14.378Z" agent="Mozilla/5.0 (Windows NT 10.0; Win64; x64) AppleWebKit/537.36 (KHTML, like Gecko) draw.io/21.1.2 Chrome/106.0.5249.199 Electron/21.4.3 Safari/537.36" etag="6wts0Hai5Ts8M9GhZhY9" version="21.1.2" type="device">
  <diagram name="Page-1" id="-p1qWs2ecGMafq20Qr4L">
    <mxGraphModel dx="792" dy="838" grid="1" gridSize="10" guides="1" tooltips="1" connect="1" arrows="1" fold="1" page="1" pageScale="1" pageWidth="850" pageHeight="1100" math="0" shadow="0">
      <root>
        <mxCell id="0" />
        <mxCell id="1" parent="0" />
        <mxCell id="mh8NLGuVUVczNtWH8qPh-1" value="Enviroment &quot;Blue&quot;" style="points=[[0,0],[0.25,0],[0.5,0],[0.75,0],[1,0],[1,0.25],[1,0.5],[1,0.75],[1,1],[0.75,1],[0.5,1],[0.25,1],[0,1],[0,0.75],[0,0.5],[0,0.25]];outlineConnect=0;gradientColor=none;html=1;whiteSpace=wrap;fontSize=12;fontStyle=1;container=1;pointerEvents=0;collapsible=0;recursiveResize=0;shape=mxgraph.aws4.groupCenter;grIcon=mxgraph.aws4.group_auto_scaling_group;grStroke=1;strokeColor=#1699fe;fillColor=none;verticalAlign=top;align=center;fontColor=#1699fe;dashed=1;spacingTop=25;" parent="1" vertex="1">
          <mxGeometry x="240" y="210" width="130" height="440" as="geometry" />
        </mxCell>
        <mxCell id="mh8NLGuVUVczNtWH8qPh-2" value="v1" style="outlineConnect=0;dashed=0;verticalLabelPosition=bottom;verticalAlign=top;align=center;html=1;shape=mxgraph.aws3.ec2;fillColor=#1699fe;gradientColor=none;" parent="mh8NLGuVUVczNtWH8qPh-1" vertex="1">
          <mxGeometry x="30" y="60" width="76.5" height="93" as="geometry" />
        </mxCell>
        <mxCell id="mh8NLGuVUVczNtWH8qPh-3" value="v1" style="outlineConnect=0;dashed=0;verticalLabelPosition=bottom;verticalAlign=top;align=center;html=1;shape=mxgraph.aws3.ec2;fillColor=#1699fe;gradientColor=none;" parent="mh8NLGuVUVczNtWH8qPh-1" vertex="1">
          <mxGeometry x="26.75" y="190" width="76.5" height="93" as="geometry" />
        </mxCell>
        <mxCell id="mh8NLGuVUVczNtWH8qPh-4" value="v1" style="outlineConnect=0;dashed=0;verticalLabelPosition=bottom;verticalAlign=top;align=center;html=1;shape=mxgraph.aws3.ec2;fillColor=#1699fe;gradientColor=none;" parent="mh8NLGuVUVczNtWH8qPh-1" vertex="1">
          <mxGeometry x="26.75" y="320" width="76.5" height="93" as="geometry" />
        </mxCell>
        <mxCell id="mh8NLGuVUVczNtWH8qPh-17" value="Enviroment &quot;Green&quot;" style="points=[[0,0],[0.25,0],[0.5,0],[0.75,0],[1,0],[1,0.25],[1,0.5],[1,0.75],[1,1],[0.75,1],[0.5,1],[0.25,1],[0,1],[0,0.75],[0,0.5],[0,0.25]];outlineConnect=0;gradientColor=none;html=1;whiteSpace=wrap;fontSize=12;fontStyle=1;container=1;pointerEvents=0;collapsible=0;recursiveResize=0;shape=mxgraph.aws4.groupCenter;grIcon=mxgraph.aws4.group_auto_scaling_group;grStroke=1;strokeColor=#00b800;fillColor=none;verticalAlign=top;align=center;fontColor=#00b800;dashed=1;spacingTop=25;" parent="1" vertex="1">
          <mxGeometry x="240" y="680" width="130" height="440" as="geometry" />
        </mxCell>
        <mxCell id="mh8NLGuVUVczNtWH8qPh-18" value="v2" style="outlineConnect=0;dashed=0;verticalLabelPosition=bottom;verticalAlign=top;align=center;html=1;shape=mxgraph.aws3.ec2;fillColor=#33ff33;gradientColor=none;" parent="mh8NLGuVUVczNtWH8qPh-17" vertex="1">
          <mxGeometry x="30" y="60" width="76.5" height="93" as="geometry" />
        </mxCell>
        <mxCell id="mh8NLGuVUVczNtWH8qPh-19" value="v2" style="outlineConnect=0;dashed=0;verticalLabelPosition=bottom;verticalAlign=top;align=center;html=1;shape=mxgraph.aws3.ec2;fillColor=#33ff33;gradientColor=none;" parent="mh8NLGuVUVczNtWH8qPh-17" vertex="1">
          <mxGeometry x="26.75" y="190" width="76.5" height="93" as="geometry" />
        </mxCell>
        <mxCell id="mh8NLGuVUVczNtWH8qPh-20" value="v2" style="outlineConnect=0;dashed=0;verticalLabelPosition=bottom;verticalAlign=top;align=center;html=1;shape=mxgraph.aws3.ec2;fillColor=#33ff33;gradientColor=none;" parent="mh8NLGuVUVczNtWH8qPh-17" vertex="1">
          <mxGeometry x="26.75" y="320" width="76.5" height="93" as="geometry" />
        </mxCell>
        <mxCell id="XWn4XY3Gzv1DWaWxbZ7G-4" value="90%" style="edgeStyle=orthogonalEdgeStyle;rounded=0;orthogonalLoop=1;jettySize=auto;html=1;fontSize=30;" edge="1" parent="1" source="XWn4XY3Gzv1DWaWxbZ7G-1" target="mh8NLGuVUVczNtWH8qPh-1">
          <mxGeometry relative="1" as="geometry" />
        </mxCell>
        <mxCell id="XWn4XY3Gzv1DWaWxbZ7G-5" value="10%" style="edgeStyle=orthogonalEdgeStyle;rounded=0;orthogonalLoop=1;jettySize=auto;html=1;fontSize=30;" edge="1" parent="1" source="XWn4XY3Gzv1DWaWxbZ7G-1" target="mh8NLGuVUVczNtWH8qPh-17">
          <mxGeometry relative="1" as="geometry" />
        </mxCell>
        <mxCell id="XWn4XY3Gzv1DWaWxbZ7G-1" value="Route 53" style="outlineConnect=0;dashed=0;verticalLabelPosition=bottom;verticalAlign=top;align=center;html=1;shape=mxgraph.aws3.route_53;fillColor=#F58536;gradientColor=none;" vertex="1" parent="1">
          <mxGeometry x="480" y="620" width="70.5" height="85.5" as="geometry" />
        </mxCell>
        <mxCell id="XWn4XY3Gzv1DWaWxbZ7G-3" style="edgeStyle=orthogonalEdgeStyle;rounded=0;orthogonalLoop=1;jettySize=auto;html=1;" edge="1" parent="1" source="XWn4XY3Gzv1DWaWxbZ7G-2" target="XWn4XY3Gzv1DWaWxbZ7G-1">
          <mxGeometry relative="1" as="geometry" />
        </mxCell>
        <mxCell id="XWn4XY3Gzv1DWaWxbZ7G-2" value="Client" style="sketch=0;outlineConnect=0;fontColor=#232F3E;gradientColor=none;fillColor=#232F3D;strokeColor=none;dashed=0;verticalLabelPosition=bottom;verticalAlign=top;align=center;html=1;fontSize=12;fontStyle=0;aspect=fixed;pointerEvents=1;shape=mxgraph.aws4.user;" vertex="1" parent="1">
          <mxGeometry x="660" y="623.75" width="78" height="78" as="geometry" />
        </mxCell>
        <mxCell id="XWn4XY3Gzv1DWaWxbZ7G-7" value="Blue/Green deployment" style="text;html=1;strokeColor=none;fillColor=none;align=center;verticalAlign=middle;whiteSpace=wrap;rounded=0;fontSize=30;fontStyle=1" vertex="1" parent="1">
          <mxGeometry x="240" y="170" width="540" height="30" as="geometry" />
        </mxCell>
      </root>
    </mxGraphModel>
  </diagram>
</mxfile>
